<?xml version="1.0" standalone="no"?>
<!DOCTYPE svg PUBLIC "-//W3C//DTD SVG 20010904//EN"
 "http://www.w3.org/TR/2001/REC-SVG-20010904/DTD/svg10.dtd">
<svg version="1.0" xmlns="http://www.w3.org/2000/svg"
 width="512.000000pt" height="512.000000pt" viewBox="0 0 512.000000 512.000000"
 preserveAspectRatio="xMidYMid meet">

<g transform="translate(0.000000,512.000000) scale(0.100000,-0.100000)"
fill="#000000" stroke="none">
<path d="M1645 5113 c-279 -39 -527 -242 -626 -513 -60 -164 -62 -344 -6 -510
l24 -72 -53 -102 c-104 -200 -148 -386 -143 -616 l3 -135 -138 -354 c-76 -195
-143 -378 -149 -408 -22 -104 35 -239 127 -302 l44 -30 -15 -43 c-32 -90 4
-264 77 -376 l40 -63 -51 -100 c-61 -123 -111 -271 -135 -399 -14 -78 -18
-173 -21 -525 -4 -399 -3 -433 14 -465 29 -57 63 -63 313 -56 244 6 390 27
546 77 131 41 283 114 391 186 48 32 93 61 99 65 8 5 46 -48 110 -150 54 -86
112 -172 130 -189 l32 -33 1122 0 1122 0 34 34 c44 44 44 79 2 137 -17 24
-178 235 -357 469 -179 234 -346 459 -372 501 -86 144 -126 310 -116 489 10
173 54 298 166 470 151 233 235 471 260 743 10 103 12 109 51 160 50 67 106
187 125 271 36 156 12 355 -60 501 -74 150 -339 457 -549 634 -485 410 -1046
642 -1691 701 -107 10 -290 11 -350 3z m449 -214 c90 -11 152 -27 112 -28 -34
-2 -199 -63 -286 -106 -258 -129 -482 -341 -612 -578 -37 -67 -46 -77 -68 -75
-21 3 -28 12 -43 57 -64 194 -5 424 147 576 81 80 161 126 268 156 63 17 94
19 233 14 88 -2 200 -10 249 -16z m631 -154 c55 -21 131 -51 169 -68 l69 -31
-85 -12 c-185 -27 -357 -86 -515 -176 -129 -74 -217 -144 -332 -263 l-102
-106 -109 7 c-61 4 -110 10 -110 15 0 4 28 50 62 101 122 182 338 372 542 475
108 55 247 104 281 99 17 -2 75 -21 130 -41z m562 -288 c67 -45 154 -107 192
-137 l69 -55 -156 -6 c-162 -7 -258 -22 -397 -66 -107 -33 -262 -109 -363
-177 l-83 -57 -67 20 c-37 11 -82 22 -99 26 -18 4 -33 10 -33 15 0 19 113 139
200 212 156 131 332 226 520 282 47 14 87 25 90 25 3 1 60 -36 127 -82z m479
-399 c122 -129 284 -333 284 -358 0 -4 -32 3 -71 17 -137 47 -236 64 -411 70
-168 6 -274 -3 -389 -33 l-56 -14 -88 41 -89 40 30 24 c55 45 188 119 291 163
129 54 284 94 429 111 6 0 37 -27 70 -61z m-1838 -172 c733 -96 1382 -391
1918 -873 l81 -72 -4 -53 c-19 -249 -97 -472 -249 -708 -72 -112 -121 -221
-156 -347 -18 -66 -22 -105 -22 -253 0 -194 11 -252 77 -414 48 -116 93 -182
401 -585 150 -196 276 -362 280 -368 6 -10 -187 -13 -951 -13 l-958 0 -67 109
c-85 137 -87 141 -55 141 46 0 201 51 302 99 170 82 349 235 454 390 93 137
167 330 190 495 7 46 11 260 11 522 l0 444 -29 32 c-24 27 -36 33 -71 33 -41
0 -46 -4 -108 -75 -319 -366 -695 -606 -1125 -720 -65 -17 -121 -30 -123 -28
-2 3 12 36 31 74 49 96 69 196 62 303 -10 164 -49 240 -127 248 -67 6 -105
-21 -125 -91 -27 -93 -76 -136 -155 -136 -53 0 -72 10 -147 82 -95 90 -150
111 -308 118 -91 3 -137 10 -153 20 -23 16 -52 67 -52 95 0 9 66 186 147 393
l146 377 2 190 c1 157 5 204 23 270 24 94 77 222 116 284 l28 44 296 -6 c184
-3 344 -11 420 -21z m2111 -397 l71 -12 0 -62 c0 -71 -20 -146 -62 -228 l-29
-58 -67 58 c-93 82 -202 169 -299 238 -45 33 -81 61 -79 62 2 2 36 7 77 13 89
11 289 5 388 -11z m-1062 -1764 c-4 -318 -10 -360 -76 -514 -138 -324 -460
-551 -820 -577 -98 -8 -107 -11 -176 -69 -82 -68 -170 -124 -289 -181 -200
-96 -369 -133 -626 -137 l-165 -2 1 370 c1 342 2 378 23 474 23 111 76 258
116 327 l25 42 57 -23 c123 -50 284 -56 538 -20 494 69 968 290 1315 613 l75
70 3 -42 c2 -22 2 -171 -1 -331z m-1920 304 c15 -6 53 -37 85 -70 83 -87 146
-114 268 -114 82 0 102 4 147 26 l53 26 -6 -26 c-22 -91 -114 -200 -209 -247
-51 -25 -72 -29 -140 -29 -71 0 -89 4 -146 32 -116 57 -192 165 -205 291 -6
58 -5 62 24 91 33 34 76 40 129 20z"/>
<path d="M1316 3164 c-20 -21 -26 -37 -26 -71 0 -51 30 -86 81 -97 41 -8 257
-8 298 0 78 16 110 113 55 168 l-27 26 -177 0 -177 0 -27 -26z"/>
</g>
</svg>
